<svg width="24" height="24" viewBox="0 0 24 24" fill="none" xmlns="http://www.w3.org/2000/svg">
<path d="M11.8274 9.32021C8.93853 9.15997 6.36443 7.7745 4.64748 5.65888L4.61909 5.6239L4.59627 5.66274C4.28812 6.18713 4.11519 6.79257 4.11518 7.45174C4.11518 7.45175 4.11518 7.45177 4.11518 7.45179H4.14643M11.8274 9.32021L5.65083 10.374C5.63434 10.3627 5.61797 10.3513 5.60169 10.3397C5.62152 10.3411 5.64139 10.3423 5.66129 10.3433C5.20176 10.0262 4.82435 9.6038 4.56079 9.11098C4.28784 8.60059 4.14548 8.03057 4.14643 7.45179M11.8274 9.32021C11.3529 6.93434 13.1447 5.00446 15.2946 5.00446C16.3099 5.00446 17.2238 5.42631 17.8717 6.11074C18.6548 5.96047 19.4061 5.6685 20.0733 5.27136L20.1444 5.22903L20.119 5.3078C19.8687 6.08439 19.3576 6.74502 18.6816 7.18477C19.3362 7.10019 19.9707 6.9113 20.559 6.65703L20.6577 6.6144L20.5973 6.70328C20.1217 7.40324 19.5241 8.0236 18.8413 8.52223L11.8274 9.32021ZM4.14643 7.45179C4.14643 6.81029 4.31158 6.22041 4.60642 5.70746M4.14643 7.45179L4.60642 5.70746M4.60642 5.70746C4.60393 5.7044 4.60144 5.70133 4.59895 5.69826L4.62321 5.67857L4.60642 5.70746ZM2.57143 0.03125H21.4286C22.831 0.03125 23.9688 1.16904 23.9688 2.57143V21.4286C23.9688 22.831 22.831 23.9688 21.4286 23.9688H2.57143C1.16904 23.9688 0.03125 22.831 0.03125 21.4286V2.57143C0.03125 1.16904 1.16904 0.03125 2.57143 0.03125Z" fill="#FDF1FF" stroke="#FDF1FF" stroke-width="0.0625"/>
</svg>
